<svg width="25" height="24" viewBox="0 0 25 24" fill="none" xmlns="http://www.w3.org/2000/svg">
<path d="M12.6046 21L12.5042 20.8499C11.8073 19.808 11.4588 19.287 10.9984 18.9098C10.5908 18.5759 10.1211 18.3254 9.6163 18.1726C9.04605 18 8.41782 18 7.16136 18H5.78196C4.65812 18 4.0962 18 3.66695 17.782C3.28937 17.5903 2.98239 17.2843 2.79 16.908C2.57129 16.4802 2.57129 15.9201 2.57129 14.8V6.2C2.57129 5.07989 2.57129 4.51984 2.79 4.09202C2.98239 3.71569 3.28937 3.40973 3.66695 3.21799C4.0962 3 4.65812 3 5.78196 3H6.18329C8.43097 3 9.5548 3 10.4133 3.43597C11.1685 3.81947 11.7824 4.43139 12.1672 5.18404C12.6046 6.03968 12.6046 7.15979 12.6046 9.4M12.6046 21V9.4M12.6046 21L12.705 20.8499C13.402 19.808 13.7504 19.287 14.2109 18.9098C14.6185 18.5759 15.0881 18.3254 15.5929 18.1726C16.1632 18 16.7914 18 18.0479 18H19.4273C20.5511 18 21.113 18 21.5423 17.782C21.9199 17.5903 22.2269 17.2843 22.4192 16.908C22.638 16.4802 22.638 15.9201 22.638 14.8V6.2C22.638 5.07989 22.638 4.51984 22.4192 4.09202C22.2269 3.71569 21.9199 3.40973 21.5423 3.21799C21.113 3 20.5511 3 19.4273 3H19.026C16.7783 3 15.6544 3 14.7959 3.43597C14.0408 3.81947 13.4268 4.43139 13.042 5.18404C12.6046 6.03968 12.6046 7.15979 12.6046 9.4" stroke="white" stroke-width="1.4" stroke-linecap="round" stroke-linejoin="round"/>
</svg>
