<svg width="25" height="24" viewBox="0 0 25 24" fill="none" xmlns="http://www.w3.org/2000/svg">
<path d="M9.46308 19.3711L10.0495 20.6856C10.2238 21.0768 10.5083 21.4093 10.8684 21.6426C11.2286 21.8759 11.6489 22.0001 12.0784 22C12.508 22.0001 12.9283 21.8759 13.2885 21.6426C13.6486 21.4093 13.9331 21.0768 14.1074 20.6856L14.6938 19.3711C14.9025 18.9047 15.2537 18.5159 15.6971 18.26C16.1434 18.0034 16.6597 17.8941 17.172 17.9478L18.6068 18.1C19.0339 18.145 19.4649 18.0656 19.8476 17.8713C20.2303 17.6771 20.5482 17.3763 20.7628 17.0056C20.9777 16.635 21.0801 16.2103 21.0576 15.7829C21.035 15.3555 20.8885 14.9438 20.6358 14.5978L19.7863 13.4344C19.4838 13.0171 19.3222 12.5148 19.3247 12C19.3246 11.4866 19.4878 10.9864 19.7907 10.5711L20.6402 9.40778C20.8929 9.06175 21.0395 8.65007 21.062 8.22267C21.0846 7.79528 20.9822 7.37054 20.7673 7C20.5527 6.62923 20.2348 6.32849 19.8521 6.13423C19.4694 5.93997 19.0383 5.86053 18.6113 5.90556L17.1765 6.05778C16.6641 6.11141 16.1479 6.00212 15.7016 5.74556C15.2572 5.48825 14.906 5.09736 14.6983 4.62889L14.1074 3.31444C13.9331 2.92317 13.6486 2.59072 13.2885 2.3574C12.9283 2.12408 12.508 1.99993 12.0784 2C11.6489 1.99993 11.2286 2.12408 10.8684 2.3574C10.5083 2.59072 10.2238 2.92317 10.0495 3.31444L9.46308 4.62889C9.25532 5.09736 8.9041 5.48825 8.45975 5.74556C8.01348 6.00212 7.49722 6.11141 6.98485 6.05778L5.54562 5.90556C5.11854 5.86053 4.68751 5.93997 4.30482 6.13423C3.92212 6.32849 3.60419 6.62923 3.38957 7C3.17468 7.37054 3.0723 7.79528 3.09486 8.22267C3.11742 8.65007 3.26395 9.06175 3.51666 9.40778L4.36615 10.5711C4.6691 10.9864 4.83224 11.4866 4.83214 12C4.83224 12.5134 4.6691 13.0137 4.36615 13.4289L3.51666 14.5922C3.26395 14.9382 3.11742 15.3499 3.09486 15.7773C3.0723 16.2047 3.17468 16.6295 3.38957 17C3.6044 17.3706 3.92237 17.6712 4.30501 17.8654C4.68765 18.0596 5.11857 18.1392 5.54562 18.0944L6.98039 17.9422C7.49276 17.8886 8.00902 17.9979 8.45529 18.2544C8.9013 18.511 9.25415 18.902 9.46308 19.3711Z" stroke="#1B1B1B" stroke-width="1.4" stroke-linecap="round" stroke-linejoin="round"/>
<path d="M12.0766 15C13.739 15 15.0866 13.6569 15.0866 12C15.0866 10.3431 13.739 9 12.0766 9C10.4143 9 9.06665 10.3431 9.06665 12C9.06665 13.6569 10.4143 15 12.0766 15Z" stroke="#1B1B1B" stroke-width="1.4" stroke-linecap="round" stroke-linejoin="round"/>
</svg>
