<svg width="25" height="25" viewBox="0 0 25 25" fill="none" xmlns="http://www.w3.org/2000/svg">
<path d="M12.3103 3.77768C7.97312 4.17742 4.57725 7.81406 4.57725 12.2412C4.57725 13.1912 4.73362 14.1048 5.0221 14.9578C5.13066 15.2788 5.18494 15.4393 5.19473 15.5626C5.2044 15.6844 5.19709 15.7698 5.16686 15.8882C5.13625 16.008 5.06868 16.1327 4.93353 16.382L3.29242 19.4096C3.05833 19.8414 2.94128 20.0573 2.96748 20.224C2.9903 20.3691 3.07601 20.4969 3.20186 20.5734C3.34634 20.6613 3.59127 20.6361 4.08114 20.5856L9.21924 20.0562C9.37477 20.0402 9.45265 20.0322 9.52354 20.0349C9.59329 20.0375 9.64252 20.0441 9.71054 20.0597C9.77969 20.0756 9.86664 20.109 10.0406 20.1757C10.9918 20.541 12.0252 20.7412 13.1056 20.7412C17.5512 20.7412 21.2023 17.351 21.5983 13.0231M20.7523 4.61989C21.9278 5.79146 21.9278 7.69096 20.7523 8.86253C19.5768 10.0341 17.671 10.0341 16.4955 8.86253C15.32 7.69096 15.32 5.79146 16.4955 4.61989C17.671 3.44832 19.5768 3.44832 20.7523 4.61989Z" stroke="#1B1B1B" stroke-width="1.4" stroke-linecap="round" stroke-linejoin="round"/>
</svg>
