<svg width="25" height="24" viewBox="0 0 25 24" fill="none" xmlns="http://www.w3.org/2000/svg">
<path d="M8.56561 14.6667C8.56561 15.9553 9.61376 17 10.9067 17H13.0806C14.4659 17 15.5889 15.8807 15.5889 14.5C15.5889 13.1193 14.4659 12 13.0806 12H11.0739C9.68863 12 8.56561 10.8807 8.56561 9.5C8.56561 8.11929 9.68863 7 11.0739 7H13.2478C14.5408 7 15.5889 8.04467 15.5889 9.33333M12.0773 5.5V7M12.0773 17V18.5M22.1106 12C22.1106 17.5228 17.6185 22 12.0773 22C6.53602 22 2.04395 17.5228 2.04395 12C2.04395 6.47715 6.53602 2 12.0773 2C17.6185 2 22.1106 6.47715 22.1106 12Z" stroke="#1B1B1B" stroke-width="1.4" stroke-linecap="round" stroke-linejoin="round"/>
</svg>
