<svg width="25" height="24" viewBox="0 0 25 24" fill="none" xmlns="http://www.w3.org/2000/svg">
<path d="M6.05687 17C6.05687 17.93 6.05687 18.395 6.15944 18.7765C6.43776 19.8117 7.2491 20.6204 8.28783 20.8978C8.6706 21 9.13714 21 10.0702 21H16.2909C17.9766 21 18.8195 21 19.4634 20.673C20.0298 20.3854 20.4902 19.9265 20.7788 19.362C21.1069 18.7202 21.1069 17.8802 21.1069 16.2V7.8C21.1069 6.11984 21.1069 5.27976 20.7788 4.63803C20.4902 4.07354 20.0298 3.6146 19.4634 3.32698C18.8195 3 17.9766 3 16.2909 3H10.0702C9.13714 3 8.6706 3 8.28783 3.10222C7.2491 3.37962 6.43776 4.18827 6.15944 5.22354C6.05687 5.60504 6.05687 6.07003 6.05687 7M12.0769 8L16.0902 12M16.0902 12L12.0769 16M16.0902 12H3.04688" stroke="#1B1B1B" stroke-width="1.4" stroke-linecap="round" stroke-linejoin="round"/>
</svg>
