<svg width="17" height="17" viewBox="0 0 17 17" fill="none" xmlns="http://www.w3.org/2000/svg">
<path d="M14.4746 1.6695C14.4288 1.61916 14.3732 1.57863 14.3113 1.55036C14.2494 1.52209 14.1824 1.50667 14.1143 1.50503C14.0463 1.50339 13.9786 1.51556 13.9154 1.54081C13.8522 1.56606 13.7947 1.60387 13.7466 1.65194L13.3587 2.03791C13.3117 2.08495 13.2853 2.14872 13.2853 2.21522C13.2853 2.28172 13.3117 2.34549 13.3587 2.39253L13.7143 2.74746C13.7376 2.77087 13.7653 2.78945 13.7958 2.80213C13.8263 2.81481 13.859 2.82134 13.892 2.82134C13.9251 2.82134 13.9578 2.81481 13.9883 2.80213C14.0188 2.78945 14.0465 2.77087 14.0698 2.74746L14.448 2.37121C14.6392 2.18026 14.6571 1.86923 14.4746 1.6695ZM12.5745 2.82177L6.91449 8.47179C6.88017 8.50597 6.85523 8.5484 6.84206 8.59501L6.58025 9.37479C6.57398 9.39595 6.57353 9.41841 6.57896 9.4398C6.58439 9.46119 6.5955 9.48071 6.6111 9.49632C6.62671 9.51192 6.64623 9.52303 6.66762 9.52846C6.68901 9.53389 6.71147 9.53344 6.73263 9.52717L7.51178 9.26536C7.55839 9.25219 7.60083 9.22725 7.635 9.19293L13.285 3.53225C13.3373 3.47942 13.3666 3.4081 13.3666 3.33378C13.3666 3.25946 13.3373 3.18814 13.285 3.13531L12.9731 2.82177C12.9202 2.76902 12.8485 2.7394 12.7738 2.7394C12.6991 2.7394 12.6274 2.76902 12.5745 2.82177Z" fill="black"/>
<path d="M12.167 6.0721L8.3452 9.90138C8.19748 10.0494 8.01594 10.1593 7.81626 10.2215L7.00419 10.4934C6.81146 10.5478 6.60771 10.5498 6.41393 10.4993C6.22015 10.4488 6.04334 10.3475 5.90173 10.2059C5.76013 10.0643 5.65884 9.88746 5.60831 9.69368C5.55778 9.4999 5.55983 9.29615 5.61426 9.10342L5.8861 8.29135C5.94812 8.09173 6.05777 7.9102 6.2056 7.7624L10.0349 3.94002C10.07 3.90496 10.0939 3.86027 10.1036 3.81162C10.1133 3.76296 10.1084 3.71253 10.0894 3.66668C10.0704 3.62084 10.0383 3.58164 9.99707 3.55406C9.95583 3.52648 9.90734 3.51174 9.85773 3.51172H3.31443C2.84875 3.51172 2.40215 3.69671 2.07287 4.02599C1.74358 4.35527 1.55859 4.80188 1.55859 5.26755V12.7926C1.55859 13.2582 1.74358 13.7048 2.07287 14.0341C2.40215 14.3634 2.84875 14.5484 3.31443 14.5484H10.8394C11.3051 14.5484 11.7517 14.3634 12.081 14.0341C12.4103 13.7048 12.5953 13.2582 12.5953 12.7926V6.24925C12.5952 6.19964 12.5805 6.15115 12.5529 6.10991C12.5253 6.06867 12.4861 6.03654 12.4403 6.01758C12.3945 5.99862 12.344 5.99367 12.2954 6.00338C12.2467 6.01308 12.202 6.037 12.167 6.0721Z" fill="black"/>
</svg>
