<svg width="25" height="25" viewBox="0 0 25 25" fill="none" xmlns="http://www.w3.org/2000/svg">
<path d="M19.885 20.8391L13.623 14.5771C13.123 15.0031 12.548 15.3328 11.898 15.5661C11.248 15.7994 10.5947 15.9161 9.93801 15.9161C8.33667 15.9161 6.98134 15.3618 5.87201 14.2531C4.76267 13.1444 4.20801 11.7894 4.20801 10.1881C4.20801 8.58677 4.76201 7.2311 5.87001 6.1211C6.97801 5.0111 8.33267 4.45544 9.93401 4.4541C11.5353 4.45277 12.8913 5.00744 14.002 6.1181C15.1127 7.22877 15.668 8.58444 15.668 10.1851C15.668 10.8798 15.545 11.5521 15.299 12.2021C15.053 12.8521 14.7297 13.4081 14.329 13.8701L20.591 20.1311L19.885 20.8391ZM9.93901 14.9151C11.2657 14.9151 12.3857 14.4584 13.299 13.5451C14.2123 12.6318 14.669 11.5114 14.669 10.1841C14.669 8.85677 14.2123 7.73677 13.299 6.8241C12.3857 5.91144 11.2657 5.45477 9.93901 5.4541C8.61234 5.45344 7.49201 5.9101 6.57801 6.8241C5.66401 7.7381 5.20734 8.8581 5.20801 10.1841C5.20867 11.5101 5.66534 12.6301 6.57801 13.5441C7.49067 14.4581 8.61067 14.9148 9.93801 14.9141" fill="#9D9393"/>
</svg>
