<svg width="20" height="23" viewBox="0 0 20 23" fill="none" xmlns="http://www.w3.org/2000/svg">
<path d="M7.6225 20.6855C8.32764 21.3079 9.25388 21.6855 10.2683 21.6855C11.2828 21.6855 12.209 21.3079 12.9142 20.6855M16.2683 7.68555C16.2683 6.09425 15.6362 4.56812 14.511 3.44291C13.3858 2.31769 11.8596 1.68555 10.2683 1.68555C8.67703 1.68555 7.15091 2.31769 6.02569 3.44291C4.90047 4.56812 4.26833 6.09425 4.26833 7.68555C4.26833 10.7757 3.4888 12.8915 2.61799 14.291C1.88346 15.4714 1.51619 16.0617 1.52965 16.2263C1.54457 16.4086 1.58319 16.4781 1.73011 16.5871C1.86279 16.6855 2.46092 16.6855 3.65718 16.6855H16.8795C18.0757 16.6855 18.6739 16.6855 18.8066 16.5871C18.9535 16.4781 18.9921 16.4086 19.007 16.2263C19.0205 16.0617 18.6532 15.4714 17.9187 14.291C17.0479 12.8915 16.2683 10.7757 16.2683 7.68555Z" stroke="#1B1B1B" stroke-width="1.4" stroke-linecap="round" stroke-linejoin="round"/>
</svg>
