<svg width="25" height="25" viewBox="0 0 25 25" fill="none" xmlns="http://www.w3.org/2000/svg">
<path d="M23.7747 4.00849L12.6609 0.170341C12.4708 0.104678 12.2652 0.104678 12.0751 0.170341L0.961377 4.00849C0.776964 4.07218 0.61657 4.19438 0.502916 4.35777C0.389262 4.52115 0.328111 4.71745 0.328125 4.91885V14.5142C0.328125 14.7687 0.425701 15.0128 0.599387 15.1927C0.773073 15.3727 1.00864 15.4738 1.25427 15.4738C1.4999 15.4738 1.73547 15.3727 1.90915 15.1927C2.08284 15.0128 2.18042 14.7687 2.18042 14.5142V6.25021L6.06907 7.59236C5.03591 9.32169 4.70737 11.4051 5.15559 13.3852C5.60381 15.3653 6.79215 17.0802 8.45968 18.1533C6.37586 19.0001 4.5745 20.5317 3.25706 22.6259C3.18854 22.7314 3.14095 22.85 3.11705 22.9747C3.09315 23.0994 3.09342 23.2278 3.11784 23.3525C3.14226 23.4771 3.19035 23.5954 3.2593 23.7006C3.32826 23.8058 3.41671 23.8958 3.51951 23.9653C3.62231 24.0347 3.73742 24.0823 3.85814 24.1053C3.97886 24.1283 4.10278 24.1262 4.2227 24.0991C4.34262 24.072 4.45616 24.0205 4.5567 23.9476C4.65724 23.8746 4.74278 23.7817 4.80836 23.6742C6.55298 20.9011 9.30827 19.3119 12.368 19.3119C15.4278 19.3119 18.1831 20.9011 19.9277 23.6742C20.0635 23.8834 20.2734 24.0288 20.5118 24.0789C20.7503 24.1291 20.9982 24.08 21.2021 23.9423C21.4059 23.8045 21.5492 23.5892 21.601 23.3429C21.6528 23.0966 21.609 22.839 21.479 22.6259C20.1615 20.5317 18.3532 19.0001 16.2764 18.1533C17.9423 17.0802 19.1295 15.3665 19.5777 13.3878C20.0258 11.4092 19.6983 9.32718 18.667 7.59836L23.7747 5.83521C23.9591 5.77155 24.1196 5.64937 24.2332 5.48598C24.3469 5.32259 24.4081 5.12627 24.4081 4.92485C24.4081 4.72342 24.3469 4.52711 24.2332 4.36371C24.1196 4.20032 23.9591 4.07814 23.7747 4.01449V4.00849ZM17.9249 11.6356C17.9251 12.5458 17.7171 13.4431 17.3178 14.2538C16.9185 15.0646 16.3394 15.7657 15.628 16.2997C14.9165 16.8336 14.093 17.1852 13.225 17.3256C12.357 17.466 11.4692 17.3911 10.6346 17.1072C9.79989 16.8232 9.04208 16.3383 8.42332 15.6922C7.80456 15.0461 7.34248 14.2572 7.07499 13.3902C6.8075 12.5232 6.74223 11.6029 6.88452 10.7047C7.02682 9.80657 7.37263 8.95615 7.89358 8.22326L12.0751 9.66256C12.2652 9.72823 12.4708 9.72823 12.6609 9.66256L16.8425 8.22326C17.546 9.21162 17.9254 10.4075 17.9249 11.6356Z" fill="black"/>
</svg>
