<svg width="442" height="27" viewBox="0 0 442 27" fill="none" xmlns="http://www.w3.org/2000/svg">
<path d="M143.199 4.79998C141.318 3.93761 138.688 3.51518 135.167 3.50018C134.834 3.49585 134.509 3.5888 134.233 3.76664C134.007 3.91343 133.822 4.11134 133.694 4.34296C133.566 4.57457 133.5 4.8328 133.5 5.09493V19.3977C133.5 20.3645 134.217 21.0939 135.167 21.0939C138.868 21.0939 142.58 21.4258 144.804 23.4435C144.835 23.4713 144.873 23.4898 144.914 23.4968C144.956 23.5039 144.998 23.4991 145.037 23.4831C145.075 23.4672 145.108 23.4407 145.131 23.407C145.154 23.3733 145.166 23.3338 145.166 23.2936V6.44072C145.166 6.32702 145.14 6.21463 145.091 6.11114C145.042 6.00765 144.971 5.91547 144.881 5.84081C144.372 5.4228 143.806 5.07269 143.199 4.79998ZM157.765 3.76514C157.489 3.58775 157.163 3.49531 156.831 3.50018C153.31 3.51518 150.68 3.93561 148.799 4.79998C148.192 5.07219 147.626 5.42161 147.116 5.83881C147.027 5.91358 146.955 6.00579 146.906 6.10927C146.858 6.21274 146.832 6.32507 146.832 6.43872V23.2926C146.832 23.3312 146.844 23.3691 146.866 23.4013C146.889 23.4336 146.92 23.4588 146.958 23.4738C146.995 23.4888 147.036 23.4929 147.075 23.4857C147.115 23.4784 147.151 23.4601 147.18 23.433C148.517 22.1582 150.863 21.0924 156.833 21.0929C157.275 21.0929 157.699 20.9244 158.012 20.6243C158.324 20.3243 158.5 19.9174 158.5 19.4932V5.09543C158.501 4.83279 158.434 4.57404 158.306 4.34203C158.177 4.11002 157.992 3.91189 157.765 3.76514Z" fill="#6D28D2"/>
<path d="M165.821 22.5V5.04545H170.04V19.0739H177.301V22.5H165.821ZM185.604 22.7472C184.235 22.7472 183.053 22.4773 182.059 21.9375C181.07 21.392 180.309 20.6165 179.775 19.6108C179.246 18.5994 178.982 17.3977 178.982 16.0057C178.982 14.6534 179.249 13.4716 179.783 12.4602C180.317 11.4432 181.07 10.6534 182.042 10.0909C183.013 9.52273 184.158 9.23864 185.477 9.23864C186.408 9.23864 187.261 9.38352 188.033 9.67329C188.806 9.96307 189.474 10.392 190.036 10.9602C190.599 11.5284 191.036 12.2301 191.349 13.0653C191.661 13.8949 191.817 14.8466 191.817 15.9205V16.9602H180.44V14.5398H187.94C187.934 14.0966 187.829 13.7017 187.624 13.3551C187.42 13.0085 187.138 12.7386 186.781 12.5455C186.428 12.3466 186.022 12.2472 185.562 12.2472C185.096 12.2472 184.678 12.3523 184.309 12.5625C183.94 12.767 183.647 13.0483 183.431 13.4062C183.215 13.7585 183.102 14.1591 183.09 14.608V17.071C183.09 17.6051 183.195 18.0739 183.406 18.4773C183.616 18.875 183.914 19.1847 184.3 19.4062C184.687 19.6278 185.147 19.7386 185.681 19.7386C186.05 19.7386 186.386 19.6875 186.687 19.5852C186.988 19.483 187.246 19.3324 187.462 19.1335C187.678 18.9347 187.84 18.6903 187.948 18.4006L191.775 18.5114C191.616 19.3693 191.266 20.1165 190.727 20.7528C190.192 21.3835 189.491 21.875 188.621 22.2273C187.752 22.5739 186.746 22.7472 185.604 22.7472ZM197.636 22.7216C196.801 22.7216 196.06 22.5824 195.412 22.304C194.77 22.0199 194.261 21.5937 193.886 21.0256C193.517 20.4517 193.332 19.733 193.332 18.8693C193.332 18.142 193.46 17.5284 193.716 17.0284C193.972 16.5284 194.324 16.1222 194.773 15.8097C195.222 15.4972 195.739 15.2614 196.324 15.1023C196.909 14.9375 197.534 14.8267 198.199 14.7699C198.943 14.7017 199.543 14.6307 199.997 14.5568C200.452 14.4773 200.781 14.3665 200.986 14.2244C201.196 14.0767 201.301 13.8693 201.301 13.6023V13.5597C201.301 13.1222 201.151 12.7841 200.849 12.5455C200.548 12.3068 200.142 12.1875 199.631 12.1875C199.08 12.1875 198.636 12.3068 198.301 12.5455C197.966 12.7841 197.753 13.1136 197.662 13.5341L193.818 13.3977C193.932 12.6023 194.224 11.892 194.696 11.267C195.173 10.6364 195.827 10.142 196.656 9.78409C197.491 9.42045 198.494 9.23864 199.665 9.23864C200.5 9.23864 201.27 9.33807 201.974 9.53693C202.679 9.73011 203.293 10.0142 203.815 10.3892C204.338 10.7585 204.741 11.2131 205.026 11.7528C205.315 12.2926 205.46 12.9091 205.46 13.6023V22.5H201.54V20.6761H201.438C201.205 21.1193 200.906 21.4943 200.543 21.8011C200.185 22.108 199.761 22.3381 199.273 22.4915C198.79 22.6449 198.244 22.7216 197.636 22.7216ZM198.923 19.9943C199.372 19.9943 199.776 19.9034 200.134 19.7216C200.497 19.5398 200.787 19.2898 201.003 18.9716C201.219 18.6477 201.327 18.2727 201.327 17.8466V16.6023C201.207 16.6648 201.063 16.7216 200.892 16.7727C200.727 16.8239 200.545 16.8722 200.347 16.9176C200.148 16.9631 199.943 17.0028 199.733 17.0369C199.523 17.071 199.321 17.1023 199.128 17.1307C198.736 17.1932 198.401 17.2898 198.122 17.4205C197.849 17.5511 197.639 17.7216 197.491 17.9318C197.349 18.1364 197.278 18.3807 197.278 18.6648C197.278 19.0966 197.432 19.4261 197.739 19.6534C198.051 19.8807 198.446 19.9943 198.923 19.9943ZM208.009 22.5V9.40909H212.057V11.7955H212.193C212.432 10.9318 212.821 10.2898 213.361 9.86932C213.901 9.44318 214.528 9.23011 215.244 9.23011C215.438 9.23011 215.636 9.24432 215.841 9.27273C216.045 9.29545 216.236 9.33239 216.412 9.38352V13.0057C216.213 12.9375 215.952 12.8835 215.628 12.8438C215.31 12.804 215.026 12.7841 214.776 12.7841C214.281 12.7841 213.835 12.8949 213.438 13.1165C213.045 13.3324 212.736 13.6364 212.509 14.0284C212.287 14.4148 212.176 14.8693 212.176 15.392V22.5H208.009ZM222.278 15.0341V22.5H218.11V9.40909H222.073V11.8125H222.218C222.508 11.0114 223.002 10.3835 223.701 9.92898C224.4 9.46875 225.232 9.23864 226.198 9.23864C227.119 9.23864 227.917 9.44602 228.593 9.86079C229.275 10.2699 229.803 10.8437 230.178 11.5824C230.559 12.3153 230.746 13.1733 230.741 14.1562V22.5H226.573V14.9744C226.579 14.2472 226.394 13.679 226.019 13.2699C225.65 12.8608 225.136 12.6562 224.477 12.6562C224.039 12.6562 223.653 12.7528 223.317 12.946C222.988 13.1335 222.732 13.4034 222.55 13.7557C222.374 14.108 222.283 14.5341 222.278 15.0341Z" fill="#2E2E2E"/>
<path d="M245.551 9.40909L241.06 22.5H236.287L231.804 9.40909H236.193L238.605 18.4261H238.741L241.162 9.40909H245.551ZM252.847 22.7472C251.477 22.7472 250.295 22.4773 249.301 21.9375C248.313 21.392 247.551 20.6165 247.017 19.6108C246.489 18.5994 246.224 17.3977 246.224 16.0057C246.224 14.6534 246.491 13.4716 247.026 12.4602C247.56 11.4432 248.312 10.6534 249.284 10.0909C250.256 9.52273 251.401 9.23864 252.719 9.23864C253.651 9.23864 254.503 9.38352 255.276 9.67329C256.048 9.96307 256.716 10.392 257.278 10.9602C257.841 11.5284 258.278 12.2301 258.591 13.0653C258.903 13.8949 259.06 14.8466 259.06 15.9205V16.9602H247.682V14.5398H255.182C255.176 14.0966 255.071 13.7017 254.866 13.3551C254.662 13.0085 254.381 12.7386 254.023 12.5455C253.67 12.3466 253.264 12.2472 252.804 12.2472C252.338 12.2472 251.92 12.3523 251.551 12.5625C251.182 12.767 250.889 13.0483 250.673 13.4062C250.457 13.7585 250.344 14.1591 250.332 14.608V17.071C250.332 17.6051 250.438 18.0739 250.648 18.4773C250.858 18.875 251.156 19.1847 251.543 19.4062C251.929 19.6278 252.389 19.7386 252.923 19.7386C253.293 19.7386 253.628 19.6875 253.929 19.5852C254.23 19.483 254.489 19.3324 254.705 19.1335C254.92 18.9347 255.082 18.6903 255.19 18.4006L259.017 18.5114C258.858 19.3693 258.509 20.1165 257.969 20.7528C257.435 21.3835 256.733 21.875 255.864 22.2273C254.994 22.5739 253.989 22.7472 252.847 22.7472ZM261.188 22.5V9.40909H265.237V11.7955H265.373C265.612 10.9318 266.001 10.2898 266.54 9.86932C267.08 9.44318 267.708 9.23011 268.424 9.23011C268.617 9.23011 268.816 9.24432 269.021 9.27273C269.225 9.29545 269.415 9.33239 269.592 9.38352V13.0057C269.393 12.9375 269.131 12.8835 268.808 12.8438C268.489 12.804 268.205 12.7841 267.955 12.7841C267.461 12.7841 267.015 12.8949 266.617 13.1165C266.225 13.3324 265.915 13.6364 265.688 14.0284C265.467 14.4148 265.356 14.8693 265.356 15.392V22.5H261.188ZM271.29 22.5V9.40909H275.338V11.7955H275.474C275.713 10.9318 276.102 10.2898 276.642 9.86932C277.182 9.44318 277.81 9.23011 278.526 9.23011C278.719 9.23011 278.918 9.24432 279.122 9.27273C279.327 9.29545 279.517 9.33239 279.693 9.38352V13.0057C279.494 12.9375 279.233 12.8835 278.909 12.8438C278.591 12.804 278.307 12.7841 278.057 12.7841C277.563 12.7841 277.116 12.8949 276.719 13.1165C276.327 13.3324 276.017 13.6364 275.79 14.0284C275.568 14.4148 275.457 14.8693 275.457 15.392V22.5H271.29ZM292.82 13.4062L288.994 13.5085C288.954 13.2358 288.846 12.9943 288.67 12.7841C288.494 12.5682 288.263 12.4006 287.979 12.2812C287.701 12.1562 287.377 12.0938 287.008 12.0938C286.525 12.0938 286.113 12.1903 285.772 12.3835C285.437 12.5767 285.272 12.8381 285.278 13.1676C285.272 13.4233 285.374 13.6449 285.585 13.8324C285.8 14.0199 286.184 14.1705 286.735 14.2841L289.258 14.7614C290.565 15.0114 291.536 15.4261 292.173 16.0057C292.815 16.5852 293.138 17.3523 293.144 18.3068C293.138 19.2045 292.871 19.9858 292.343 20.6506C291.82 21.3153 291.104 21.8324 290.195 22.2017C289.286 22.5653 288.246 22.7472 287.076 22.7472C285.207 22.7472 283.732 22.3636 282.653 21.5966C281.579 20.8239 280.965 19.7898 280.812 18.4943L284.928 18.392C285.019 18.8693 285.255 19.233 285.636 19.483C286.016 19.733 286.502 19.858 287.093 19.858C287.627 19.858 288.062 19.7585 288.397 19.5597C288.732 19.3608 288.903 19.0966 288.908 18.767C288.903 18.4716 288.772 18.2358 288.516 18.0597C288.261 17.8778 287.86 17.7358 287.315 17.6335L285.031 17.1989C283.718 16.9602 282.741 16.5199 282.099 15.8778C281.457 15.2301 281.138 14.4062 281.144 13.4062C281.138 12.5312 281.371 11.7841 281.843 11.1648C282.315 10.5398 282.985 10.0625 283.854 9.73295C284.724 9.40341 285.749 9.23864 286.931 9.23864C288.704 9.23864 290.102 9.6108 291.124 10.3551C292.147 11.0937 292.712 12.1108 292.82 13.4062ZM301.315 22.7472C299.946 22.7472 298.764 22.4773 297.77 21.9375C296.781 21.392 296.02 20.6165 295.486 19.6108C294.957 18.5994 294.693 17.3977 294.693 16.0057C294.693 14.6534 294.96 13.4716 295.494 12.4602C296.028 11.4432 296.781 10.6534 297.753 10.0909C298.724 9.52273 299.869 9.23864 301.188 9.23864C302.119 9.23864 302.972 9.38352 303.744 9.67329C304.517 9.96307 305.185 10.392 305.747 10.9602C306.31 11.5284 306.747 12.2301 307.06 13.0653C307.372 13.8949 307.528 14.8466 307.528 15.9205V16.9602H296.151V14.5398H303.651C303.645 14.0966 303.54 13.7017 303.335 13.3551C303.131 13.0085 302.849 12.7386 302.491 12.5455C302.139 12.3466 301.733 12.2472 301.273 12.2472C300.807 12.2472 300.389 12.3523 300.02 12.5625C299.651 12.767 299.358 13.0483 299.142 13.4062C298.926 13.7585 298.813 14.1591 298.801 14.608V17.071C298.801 17.6051 298.906 18.0739 299.116 18.4773C299.327 18.875 299.625 19.1847 300.011 19.4062C300.398 19.6278 300.858 19.7386 301.392 19.7386C301.761 19.7386 302.097 19.6875 302.398 19.5852C302.699 19.483 302.957 19.3324 303.173 19.1335C303.389 18.9347 303.551 18.6903 303.659 18.4006L307.486 18.5114C307.327 19.3693 306.977 20.1165 306.438 20.7528C305.903 21.3835 305.202 21.875 304.332 22.2273C303.463 22.5739 302.457 22.7472 301.315 22.7472Z" fill="#6D28D2"/>
</svg>
