<svg width="26" height="21" viewBox="0 0 26 21" fill="none" xmlns="http://www.w3.org/2000/svg">
<path d="M10.1992 1.79998C8.31758 0.937614 5.68759 0.515181 2.16653 0.500183C1.83446 0.495852 1.5089 0.588803 1.23327 0.766641C1.00704 0.913432 0.821843 1.11134 0.693981 1.34296C0.566118 1.57457 0.499506 1.8328 0.500003 2.09493V16.3977C0.500003 17.3645 1.21661 18.0939 2.16653 18.0939C5.86778 18.0939 9.58049 18.4258 11.8043 20.4435C11.8347 20.4713 11.8729 20.4898 11.9142 20.4968C11.9555 20.5039 11.9981 20.4991 12.0366 20.4831C12.0751 20.4672 12.1079 20.4407 12.1308 20.407C12.1538 20.3733 12.1659 20.3338 12.1657 20.2936V3.44072C12.1658 3.32702 12.1404 3.21463 12.0913 3.11114C12.0423 3.00765 11.9707 2.91547 11.8813 2.84081C11.372 2.4228 10.8061 2.07269 10.1992 1.79998ZM24.7646 0.765141C24.4889 0.587746 24.1633 0.495314 23.8314 0.500183C20.3103 0.515181 17.6803 0.935614 15.7987 1.79998C15.1918 2.07219 14.6258 2.42161 14.1161 2.83881C14.0269 2.91358 13.9554 3.00579 13.9065 3.10927C13.8575 3.21274 13.8322 3.32507 13.8322 3.43872V20.2926C13.8322 20.3312 13.8441 20.3691 13.8664 20.4013C13.8887 20.4336 13.9204 20.4588 13.9575 20.4738C13.9947 20.4888 14.0356 20.4929 14.0752 20.4857C14.1148 20.4784 14.1513 20.4601 14.1801 20.433C15.517 19.1582 17.8631 18.0924 23.8335 18.0929C24.2755 18.0929 24.6993 17.9244 25.0119 17.6243C25.3244 17.3243 25.5 16.9174 25.5 16.4932V2.09543C25.5006 1.83279 25.4338 1.57404 25.3056 1.34203C25.1773 1.11002 24.9916 0.911894 24.7646 0.765141Z" fill="#6D28D2"/>
</svg>
