<svg width="179" height="24" viewBox="0 0 179 24" fill="none" xmlns="http://www.w3.org/2000/svg">
<path d="M12.5 2L25 7.36492L12.5 14.518L6.5464 11.1111L12.1316 9.15672C12.2466 9.21984 12.3724 9.25277 12.5 9.25309C12.7272 9.25309 12.945 9.14982 13.1056 8.96599C13.2662 8.78216 13.3565 8.53283 13.3565 8.27286C13.3565 8.01289 13.2662 7.76356 13.1056 7.57973C12.945 7.3959 12.7272 7.29263 12.5 7.29263L12.6416 7.81963L11.6494 8.16902L11.6489 8.17245L10.1847 8.68492L1.84753 11.6207V12.3648C1.96285 12.4546 2.05726 12.5752 2.12256 12.7163C2.18786 12.8573 2.22208 13.0145 2.22224 13.1741C2.22209 13.3374 2.1863 13.498 2.11812 13.6414C2.04995 13.7849 1.95154 13.9065 1.83185 13.9954C2.22171 15.6817 2.22224 19.5077 2.22224 21.0159C1.36576 21.6527 1.36576 21.676 0.509285 21.0159C0.509285 19.5079 0.509714 15.6826 0.899519 13.9959C0.779781 13.907 0.681362 13.7852 0.613211 13.6417C0.545059 13.4981 0.509335 13.3374 0.509285 13.174C0.5093 13.0142 0.543449 12.8568 0.608759 12.7156C0.674068 12.5744 0.768557 12.4536 0.883995 12.3637V10.8063L4.05961 9.68807L0 7.36492L12.5 2ZM19.8003 11.7649L20.5027 16.5889C19.1016 16.7986 17.4255 17.7307 15.8847 18.8328C15.0084 19.4597 14.1876 20.1477 13.521 20.8153C13.1136 21.2234 12.7728 21.6148 12.5 22C12.2272 21.6148 11.8864 21.2234 11.479 20.8153C10.8124 20.1477 9.99164 19.4597 9.1153 18.8328C7.57449 17.7307 5.89842 16.7986 4.49727 16.5889L5.19985 11.7649H5.53441L12.5 15.751L19.4657 11.7649H19.8003Z" fill="#6D28D2"/>
<path d="M36.321 21V3.54545H40.5398V17.5739H47.8011V21H36.321ZM56.1044 21.2472C54.7351 21.2472 53.5533 20.9773 52.5589 20.4375C51.5703 19.892 50.8089 19.1165 50.2749 18.1108C49.7464 17.0994 49.4822 15.8977 49.4822 14.5057C49.4822 13.1534 49.7493 11.9716 50.2834 10.9602C50.8175 9.94318 51.5703 9.15341 52.5419 8.59091C53.5135 8.02273 54.6584 7.73864 55.9766 7.73864C56.9084 7.73864 57.7607 7.88352 58.5334 8.17329C59.3061 8.46307 59.9737 8.89205 60.5362 9.46023C61.0987 10.0284 61.5362 10.7301 61.8487 11.5653C62.1612 12.3949 62.3175 13.3466 62.3175 14.4205V15.4602H50.9396V13.0398H58.4396C58.4339 12.5966 58.3288 12.2017 58.1243 11.8551C57.9197 11.5085 57.6385 11.2386 57.2805 11.0455C56.9283 10.8466 56.522 10.7472 56.0618 10.7472C55.5959 10.7472 55.1783 10.8523 54.8089 11.0625C54.4396 11.267 54.147 11.5483 53.9311 11.9062C53.7152 12.2585 53.6016 12.6591 53.5902 13.108V15.571C53.5902 16.1051 53.6953 16.5739 53.9055 16.9773C54.1158 17.375 54.4141 17.6847 54.8004 17.9062C55.1868 18.1278 55.647 18.2386 56.1811 18.2386C56.5504 18.2386 56.8857 18.1875 57.1868 18.0852C57.4879 17.983 57.7464 17.8324 57.9624 17.6335C58.1783 17.4347 58.3402 17.1903 58.4482 16.9006L62.2749 17.0114C62.1158 17.8693 61.7663 18.6165 61.2266 19.2528C60.6925 19.8835 59.9908 20.375 59.1214 20.7273C58.2521 21.0739 57.2464 21.2472 56.1044 21.2472ZM68.1364 21.2216C67.3011 21.2216 66.5597 21.0824 65.9119 20.804C65.2699 20.5199 64.7614 20.0937 64.3864 19.5256C64.017 18.9517 63.8324 18.233 63.8324 17.3693C63.8324 16.642 63.9602 16.0284 64.2159 15.5284C64.4716 15.0284 64.8239 14.6222 65.2727 14.3097C65.7216 13.9972 66.2386 13.7614 66.8239 13.6023C67.4091 13.4375 68.0341 13.3267 68.6989 13.2699C69.4432 13.2017 70.0426 13.1307 70.4972 13.0568C70.9517 12.9773 71.2813 12.8665 71.4858 12.7244C71.696 12.5767 71.8011 12.3693 71.8011 12.1023V12.0597C71.8011 11.6222 71.6506 11.2841 71.3494 11.0455C71.0483 10.8068 70.642 10.6875 70.1307 10.6875C69.5795 10.6875 69.1364 10.8068 68.8011 11.0455C68.4659 11.2841 68.2528 11.6136 68.1619 12.0341L64.3182 11.8977C64.4318 11.1023 64.7244 10.392 65.196 9.76705C65.6733 9.13636 66.3267 8.64205 67.1562 8.28409C67.9915 7.92045 68.9943 7.73864 70.1648 7.73864C71 7.73864 71.7699 7.83807 72.4744 8.03693C73.179 8.23011 73.7926 8.5142 74.3153 8.8892C74.8381 9.25852 75.2415 9.71307 75.5256 10.2528C75.8153 10.7926 75.9602 11.4091 75.9602 12.1023V21H72.0398V19.1761H71.9375C71.7045 19.6193 71.4063 19.9943 71.0426 20.3011C70.6847 20.608 70.2614 20.8381 69.7727 20.9915C69.2898 21.1449 68.7443 21.2216 68.1364 21.2216ZM69.4233 18.4943C69.8722 18.4943 70.2756 18.4034 70.6335 18.2216C70.9972 18.0398 71.2869 17.7898 71.5028 17.4716C71.7188 17.1477 71.8267 16.7727 71.8267 16.3466V15.1023C71.7074 15.1648 71.5625 15.2216 71.392 15.2727C71.2273 15.3239 71.0455 15.3722 70.8466 15.4176C70.6477 15.4631 70.4432 15.5028 70.233 15.5369C70.0227 15.571 69.821 15.6023 69.6278 15.6307C69.2358 15.6932 68.9006 15.7898 68.6222 15.9205C68.3494 16.0511 68.1392 16.2216 67.9915 16.4318C67.8494 16.6364 67.7784 16.8807 67.7784 17.1648C67.7784 17.5966 67.9318 17.9261 68.2386 18.1534C68.5511 18.3807 68.946 18.4943 69.4233 18.4943ZM78.5085 21V7.90909H82.5568V10.2955H82.6932C82.9318 9.43182 83.321 8.78977 83.8608 8.36932C84.4006 7.94318 85.0284 7.73011 85.7443 7.73011C85.9375 7.73011 86.1364 7.74432 86.3409 7.77273C86.5455 7.79545 86.7358 7.83239 86.9119 7.88352V11.5057C86.7131 11.4375 86.4517 11.3835 86.1278 11.3438C85.8097 11.304 85.5256 11.2841 85.2756 11.2841C84.7813 11.2841 84.3352 11.3949 83.9375 11.6165C83.5455 11.8324 83.2358 12.1364 83.0085 12.5284C82.7869 12.9148 82.6761 13.3693 82.6761 13.892V21H78.5085ZM92.7777 13.5341V21H88.6101V7.90909H92.5732V10.3125H92.718C93.0078 9.51136 93.5021 8.88352 94.201 8.42898C94.8999 7.96875 95.7322 7.73864 96.6982 7.73864C97.6186 7.73864 98.4169 7.94602 99.093 8.36079C99.7749 8.76989 100.303 9.34375 100.678 10.0824C101.059 10.8153 101.246 11.6733 101.241 12.6562V21H97.0732V13.4744C97.0788 12.7472 96.8942 12.179 96.5192 11.7699C96.1499 11.3608 95.6357 11.1562 94.9766 11.1562C94.5391 11.1562 94.1527 11.2528 93.8175 11.446C93.4879 11.6335 93.2322 11.9034 93.0504 12.2557C92.8743 12.608 92.7834 13.0341 92.7777 13.5341Z" fill="#2E2E2E"/>
<path d="M116.051 7.90909L111.56 21H106.787L102.304 7.90909H106.693L109.105 16.9261H109.241L111.662 7.90909H116.051ZM123.347 21.2472C121.977 21.2472 120.795 20.9773 119.801 20.4375C118.813 19.892 118.051 19.1165 117.517 18.1108C116.989 17.0994 116.724 15.8977 116.724 14.5057C116.724 13.1534 116.991 11.9716 117.526 10.9602C118.06 9.94318 118.812 9.15341 119.784 8.59091C120.756 8.02273 121.901 7.73864 123.219 7.73864C124.151 7.73864 125.003 7.88352 125.776 8.17329C126.548 8.46307 127.216 8.89205 127.778 9.46023C128.341 10.0284 128.778 10.7301 129.091 11.5653C129.403 12.3949 129.56 13.3466 129.56 14.4205V15.4602H118.182V13.0398H125.682C125.676 12.5966 125.571 12.2017 125.366 11.8551C125.162 11.5085 124.881 11.2386 124.523 11.0455C124.17 10.8466 123.764 10.7472 123.304 10.7472C122.838 10.7472 122.42 10.8523 122.051 11.0625C121.682 11.267 121.389 11.5483 121.173 11.9062C120.957 12.2585 120.844 12.6591 120.832 13.108V15.571C120.832 16.1051 120.938 16.5739 121.148 16.9773C121.358 17.375 121.656 17.6847 122.043 17.9062C122.429 18.1278 122.889 18.2386 123.423 18.2386C123.793 18.2386 124.128 18.1875 124.429 18.0852C124.73 17.983 124.989 17.8324 125.205 17.6335C125.42 17.4347 125.582 17.1903 125.69 16.9006L129.517 17.0114C129.358 17.8693 129.009 18.6165 128.469 19.2528C127.935 19.8835 127.233 20.375 126.364 20.7273C125.494 21.0739 124.489 21.2472 123.347 21.2472ZM131.688 21V7.90909H135.737V10.2955H135.873C136.112 9.43182 136.501 8.78977 137.04 8.36932C137.58 7.94318 138.208 7.73011 138.924 7.73011C139.117 7.73011 139.316 7.74432 139.521 7.77273C139.725 7.79545 139.915 7.83239 140.092 7.88352V11.5057C139.893 11.4375 139.631 11.3835 139.308 11.3438C138.989 11.304 138.705 11.2841 138.455 11.2841C137.961 11.2841 137.515 11.3949 137.117 11.6165C136.725 11.8324 136.415 12.1364 136.188 12.5284C135.967 12.9148 135.856 13.3693 135.856 13.892V21H131.688ZM141.79 21V7.90909H145.838V10.2955H145.974C146.213 9.43182 146.602 8.78977 147.142 8.36932C147.682 7.94318 148.31 7.73011 149.026 7.73011C149.219 7.73011 149.418 7.74432 149.622 7.77273C149.827 7.79545 150.017 7.83239 150.193 7.88352V11.5057C149.994 11.4375 149.733 11.3835 149.409 11.3438C149.091 11.304 148.807 11.2841 148.557 11.2841C148.063 11.2841 147.616 11.3949 147.219 11.6165C146.827 11.8324 146.517 12.1364 146.29 12.5284C146.068 12.9148 145.957 13.3693 145.957 13.892V21H141.79ZM163.32 11.9062L159.494 12.0085C159.454 11.7358 159.346 11.4943 159.17 11.2841C158.994 11.0682 158.763 10.9006 158.479 10.7812C158.201 10.6562 157.877 10.5938 157.508 10.5938C157.025 10.5938 156.613 10.6903 156.272 10.8835C155.937 11.0767 155.772 11.3381 155.778 11.6676C155.772 11.9233 155.874 12.1449 156.085 12.3324C156.3 12.5199 156.684 12.6705 157.235 12.7841L159.758 13.2614C161.065 13.5114 162.036 13.9261 162.673 14.5057C163.315 15.0852 163.638 15.8523 163.644 16.8068C163.638 17.7045 163.371 18.4858 162.843 19.1506C162.32 19.8153 161.604 20.3324 160.695 20.7017C159.786 21.0653 158.746 21.2472 157.576 21.2472C155.707 21.2472 154.232 20.8636 153.153 20.0966C152.079 19.3239 151.465 18.2898 151.312 16.9943L155.428 16.892C155.519 17.3693 155.755 17.733 156.136 17.983C156.516 18.233 157.002 18.358 157.593 18.358C158.127 18.358 158.562 18.2585 158.897 18.0597C159.232 17.8608 159.403 17.5966 159.408 17.267C159.403 16.9716 159.272 16.7358 159.016 16.5597C158.761 16.3778 158.36 16.2358 157.815 16.1335L155.531 15.6989C154.218 15.4602 153.241 15.0199 152.599 14.3778C151.957 13.7301 151.638 12.9062 151.644 11.9062C151.638 11.0312 151.871 10.2841 152.343 9.66477C152.815 9.03977 153.485 8.5625 154.354 8.23295C155.224 7.90341 156.249 7.73864 157.431 7.73864C159.204 7.73864 160.602 8.1108 161.624 8.85511C162.647 9.59375 163.212 10.6108 163.32 11.9062ZM171.815 21.2472C170.446 21.2472 169.264 20.9773 168.27 20.4375C167.281 19.892 166.52 19.1165 165.986 18.1108C165.457 17.0994 165.193 15.8977 165.193 14.5057C165.193 13.1534 165.46 11.9716 165.994 10.9602C166.528 9.94318 167.281 9.15341 168.253 8.59091C169.224 8.02273 170.369 7.73864 171.688 7.73864C172.619 7.73864 173.472 7.88352 174.244 8.17329C175.017 8.46307 175.685 8.89205 176.247 9.46023C176.81 10.0284 177.247 10.7301 177.56 11.5653C177.872 12.3949 178.028 13.3466 178.028 14.4205V15.4602H166.651V13.0398H174.151C174.145 12.5966 174.04 12.2017 173.835 11.8551C173.631 11.5085 173.349 11.2386 172.991 11.0455C172.639 10.8466 172.233 10.7472 171.773 10.7472C171.307 10.7472 170.889 10.8523 170.52 11.0625C170.151 11.267 169.858 11.5483 169.642 11.9062C169.426 12.2585 169.313 12.6591 169.301 13.108V15.571C169.301 16.1051 169.406 16.5739 169.616 16.9773C169.827 17.375 170.125 17.6847 170.511 17.9062C170.898 18.1278 171.358 18.2386 171.892 18.2386C172.261 18.2386 172.597 18.1875 172.898 18.0852C173.199 17.983 173.457 17.8324 173.673 17.6335C173.889 17.4347 174.051 17.1903 174.159 16.9006L177.986 17.0114C177.827 17.8693 177.477 18.6165 176.938 19.2528C176.403 19.8835 175.702 20.375 174.832 20.7273C173.963 21.0739 172.957 21.2472 171.815 21.2472Z" fill="#6D28D2"/>
</svg>
