<svg width="176" height="27" viewBox="0 0 176 27" fill="none" xmlns="http://www.w3.org/2000/svg">
<path d="M10.1992 4.79998C8.31758 3.93761 5.68759 3.51518 2.16653 3.50018C1.83446 3.49585 1.5089 3.5888 1.23327 3.76664C1.00704 3.91343 0.821843 4.11134 0.693981 4.34296C0.566118 4.57457 0.499506 4.8328 0.500003 5.09493V19.3977C0.500003 20.3645 1.21661 21.0939 2.16653 21.0939C5.86778 21.0939 9.58049 21.4258 11.8043 23.4435C11.8347 23.4713 11.8729 23.4898 11.9142 23.4968C11.9555 23.5039 11.9981 23.4991 12.0366 23.4831C12.0751 23.4672 12.1079 23.4407 12.1308 23.407C12.1538 23.3733 12.1659 23.3338 12.1657 23.2936V6.44072C12.1658 6.32702 12.1404 6.21463 12.0913 6.11114C12.0423 6.00765 11.9707 5.91547 11.8813 5.84081C11.372 5.4228 10.8061 5.07269 10.1992 4.79998ZM24.7646 3.76514C24.4889 3.58775 24.1633 3.49531 23.8314 3.50018C20.3103 3.51518 17.6803 3.93561 15.7987 4.79998C15.1918 5.07219 14.6258 5.42161 14.1161 5.83881C14.0269 5.91358 13.9554 6.00579 13.9065 6.10927C13.8575 6.21274 13.8322 6.32507 13.8322 6.43872V23.2926C13.8322 23.3312 13.8441 23.3691 13.8664 23.4013C13.8887 23.4336 13.9204 23.4588 13.9575 23.4738C13.9947 23.4888 14.0356 23.4929 14.0752 23.4857C14.1148 23.4784 14.1513 23.4601 14.1801 23.433C15.517 22.1582 17.8631 21.0924 23.8335 21.0929C24.2755 21.0929 24.6993 20.9244 25.0119 20.6243C25.3244 20.3243 25.5 19.9174 25.5 19.4932V5.09543C25.5006 4.83279 25.4338 4.57404 25.3056 4.34203C25.1773 4.11002 24.9916 3.91189 24.7646 3.76514Z" fill="#6D28D2"/>
<path d="M32.821 22.5V5.04545H37.0398V19.0739H44.3011V22.5H32.821ZM52.6044 22.7472C51.2351 22.7472 50.0533 22.4773 49.0589 21.9375C48.0703 21.392 47.3089 20.6165 46.7749 19.6108C46.2464 18.5994 45.9822 17.3977 45.9822 16.0057C45.9822 14.6534 46.2493 13.4716 46.7834 12.4602C47.3175 11.4432 48.0703 10.6534 49.0419 10.0909C50.0135 9.52273 51.1584 9.23864 52.4766 9.23864C53.4084 9.23864 54.2607 9.38352 55.0334 9.67329C55.8061 9.96307 56.4737 10.392 57.0362 10.9602C57.5987 11.5284 58.0362 12.2301 58.3487 13.0653C58.6612 13.8949 58.8175 14.8466 58.8175 15.9205V16.9602H47.4396V14.5398H54.9396C54.9339 14.0966 54.8288 13.7017 54.6243 13.3551C54.4197 13.0085 54.1385 12.7386 53.7805 12.5455C53.4283 12.3466 53.022 12.2472 52.5618 12.2472C52.0959 12.2472 51.6783 12.3523 51.3089 12.5625C50.9396 12.767 50.647 13.0483 50.4311 13.4062C50.2152 13.7585 50.1016 14.1591 50.0902 14.608V17.071C50.0902 17.6051 50.1953 18.0739 50.4055 18.4773C50.6158 18.875 50.9141 19.1847 51.3004 19.4062C51.6868 19.6278 52.147 19.7386 52.6811 19.7386C53.0504 19.7386 53.3857 19.6875 53.6868 19.5852C53.9879 19.483 54.2464 19.3324 54.4624 19.1335C54.6783 18.9347 54.8402 18.6903 54.9482 18.4006L58.7749 18.5114C58.6158 19.3693 58.2663 20.1165 57.7266 20.7528C57.1925 21.3835 56.4908 21.875 55.6214 22.2273C54.7521 22.5739 53.7464 22.7472 52.6044 22.7472ZM64.6364 22.7216C63.8011 22.7216 63.0597 22.5824 62.4119 22.304C61.7699 22.0199 61.2614 21.5937 60.8864 21.0256C60.517 20.4517 60.3324 19.733 60.3324 18.8693C60.3324 18.142 60.4602 17.5284 60.7159 17.0284C60.9716 16.5284 61.3239 16.1222 61.7727 15.8097C62.2216 15.4972 62.7386 15.2614 63.3239 15.1023C63.9091 14.9375 64.5341 14.8267 65.1989 14.7699C65.9432 14.7017 66.5426 14.6307 66.9972 14.5568C67.4517 14.4773 67.7813 14.3665 67.9858 14.2244C68.196 14.0767 68.3011 13.8693 68.3011 13.6023V13.5597C68.3011 13.1222 68.1506 12.7841 67.8494 12.5455C67.5483 12.3068 67.142 12.1875 66.6307 12.1875C66.0795 12.1875 65.6364 12.3068 65.3011 12.5455C64.9659 12.7841 64.7528 13.1136 64.6619 13.5341L60.8182 13.3977C60.9318 12.6023 61.2244 11.892 61.696 11.267C62.1733 10.6364 62.8267 10.142 63.6562 9.78409C64.4915 9.42045 65.4943 9.23864 66.6648 9.23864C67.5 9.23864 68.2699 9.33807 68.9744 9.53693C69.679 9.73011 70.2926 10.0142 70.8153 10.3892C71.3381 10.7585 71.7415 11.2131 72.0256 11.7528C72.3153 12.2926 72.4602 12.9091 72.4602 13.6023V22.5H68.5398V20.6761H68.4375C68.2045 21.1193 67.9063 21.4943 67.5426 21.8011C67.1847 22.108 66.7614 22.3381 66.2727 22.4915C65.7898 22.6449 65.2443 22.7216 64.6364 22.7216ZM65.9233 19.9943C66.3722 19.9943 66.7756 19.9034 67.1335 19.7216C67.4972 19.5398 67.7869 19.2898 68.0028 18.9716C68.2188 18.6477 68.3267 18.2727 68.3267 17.8466V16.6023C68.2074 16.6648 68.0625 16.7216 67.892 16.7727C67.7273 16.8239 67.5455 16.8722 67.3466 16.9176C67.1477 16.9631 66.9432 17.0028 66.733 17.0369C66.5227 17.071 66.321 17.1023 66.1278 17.1307C65.7358 17.1932 65.4006 17.2898 65.1222 17.4205C64.8494 17.5511 64.6392 17.7216 64.4915 17.9318C64.3494 18.1364 64.2784 18.3807 64.2784 18.6648C64.2784 19.0966 64.4318 19.4261 64.7386 19.6534C65.0511 19.8807 65.446 19.9943 65.9233 19.9943ZM75.0085 22.5V9.40909H79.0568V11.7955H79.1932C79.4318 10.9318 79.821 10.2898 80.3608 9.86932C80.9006 9.44318 81.5284 9.23011 82.2443 9.23011C82.4375 9.23011 82.6364 9.24432 82.8409 9.27273C83.0455 9.29545 83.2358 9.33239 83.4119 9.38352V13.0057C83.2131 12.9375 82.9517 12.8835 82.6278 12.8438C82.3097 12.804 82.0256 12.7841 81.7756 12.7841C81.2813 12.7841 80.8352 12.8949 80.4375 13.1165C80.0455 13.3324 79.7358 13.6364 79.5085 14.0284C79.2869 14.4148 79.1761 14.8693 79.1761 15.392V22.5H75.0085ZM89.2777 15.0341V22.5H85.1101V9.40909H89.0732V11.8125H89.218C89.5078 11.0114 90.0021 10.3835 90.701 9.92898C91.3999 9.46875 92.2322 9.23864 93.1982 9.23864C94.1186 9.23864 94.9169 9.44602 95.593 9.86079C96.2749 10.2699 96.8033 10.8437 97.1783 11.5824C97.5589 12.3153 97.7464 13.1733 97.7408 14.1562V22.5H93.5732V14.9744C93.5788 14.2472 93.3942 13.679 93.0192 13.2699C92.6499 12.8608 92.1357 12.6562 91.4766 12.6562C91.0391 12.6562 90.6527 12.7528 90.3175 12.946C89.9879 13.1335 89.7322 13.4034 89.5504 13.7557C89.3743 14.108 89.2834 14.5341 89.2777 15.0341Z" fill="#121212"/>
<path d="M112.551 9.40909L108.06 22.5H103.287L98.804 9.40909H103.193L105.605 18.4261H105.741L108.162 9.40909H112.551ZM119.847 22.7472C118.477 22.7472 117.295 22.4773 116.301 21.9375C115.313 21.392 114.551 20.6165 114.017 19.6108C113.489 18.5994 113.224 17.3977 113.224 16.0057C113.224 14.6534 113.491 13.4716 114.026 12.4602C114.56 11.4432 115.312 10.6534 116.284 10.0909C117.256 9.52273 118.401 9.23864 119.719 9.23864C120.651 9.23864 121.503 9.38352 122.276 9.67329C123.048 9.96307 123.716 10.392 124.278 10.9602C124.841 11.5284 125.278 12.2301 125.591 13.0653C125.903 13.8949 126.06 14.8466 126.06 15.9205V16.9602H114.682V14.5398H122.182C122.176 14.0966 122.071 13.7017 121.866 13.3551C121.662 13.0085 121.381 12.7386 121.023 12.5455C120.67 12.3466 120.264 12.2472 119.804 12.2472C119.338 12.2472 118.92 12.3523 118.551 12.5625C118.182 12.767 117.889 13.0483 117.673 13.4062C117.457 13.7585 117.344 14.1591 117.332 14.608V17.071C117.332 17.6051 117.438 18.0739 117.648 18.4773C117.858 18.875 118.156 19.1847 118.543 19.4062C118.929 19.6278 119.389 19.7386 119.923 19.7386C120.293 19.7386 120.628 19.6875 120.929 19.5852C121.23 19.483 121.489 19.3324 121.705 19.1335C121.92 18.9347 122.082 18.6903 122.19 18.4006L126.017 18.5114C125.858 19.3693 125.509 20.1165 124.969 20.7528C124.435 21.3835 123.733 21.875 122.864 22.2273C121.994 22.5739 120.989 22.7472 119.847 22.7472ZM128.188 22.5V9.40909H132.237V11.7955H132.373C132.612 10.9318 133.001 10.2898 133.54 9.86932C134.08 9.44318 134.708 9.23011 135.424 9.23011C135.617 9.23011 135.816 9.24432 136.021 9.27273C136.225 9.29545 136.415 9.33239 136.592 9.38352V13.0057C136.393 12.9375 136.131 12.8835 135.808 12.8438C135.489 12.804 135.205 12.7841 134.955 12.7841C134.461 12.7841 134.015 12.8949 133.617 13.1165C133.225 13.3324 132.915 13.6364 132.688 14.0284C132.467 14.4148 132.356 14.8693 132.356 15.392V22.5H128.188ZM138.29 22.5V9.40909H142.338V11.7955H142.474C142.713 10.9318 143.102 10.2898 143.642 9.86932C144.182 9.44318 144.81 9.23011 145.526 9.23011C145.719 9.23011 145.918 9.24432 146.122 9.27273C146.327 9.29545 146.517 9.33239 146.693 9.38352V13.0057C146.494 12.9375 146.233 12.8835 145.909 12.8438C145.591 12.804 145.307 12.7841 145.057 12.7841C144.563 12.7841 144.116 12.8949 143.719 13.1165C143.327 13.3324 143.017 13.6364 142.79 14.0284C142.568 14.4148 142.457 14.8693 142.457 15.392V22.5H138.29ZM159.82 13.4062L155.994 13.5085C155.954 13.2358 155.846 12.9943 155.67 12.7841C155.494 12.5682 155.263 12.4006 154.979 12.2812C154.701 12.1562 154.377 12.0938 154.008 12.0938C153.525 12.0938 153.113 12.1903 152.772 12.3835C152.437 12.5767 152.272 12.8381 152.278 13.1676C152.272 13.4233 152.374 13.6449 152.585 13.8324C152.8 14.0199 153.184 14.1705 153.735 14.2841L156.258 14.7614C157.565 15.0114 158.536 15.4261 159.173 16.0057C159.815 16.5852 160.138 17.3523 160.144 18.3068C160.138 19.2045 159.871 19.9858 159.343 20.6506C158.82 21.3153 158.104 21.8324 157.195 22.2017C156.286 22.5653 155.246 22.7472 154.076 22.7472C152.207 22.7472 150.732 22.3636 149.653 21.5966C148.579 20.8239 147.965 19.7898 147.812 18.4943L151.928 18.392C152.019 18.8693 152.255 19.233 152.636 19.483C153.016 19.733 153.502 19.858 154.093 19.858C154.627 19.858 155.062 19.7585 155.397 19.5597C155.732 19.3608 155.903 19.0966 155.908 18.767C155.903 18.4716 155.772 18.2358 155.516 18.0597C155.261 17.8778 154.86 17.7358 154.315 17.6335L152.031 17.1989C150.718 16.9602 149.741 16.5199 149.099 15.8778C148.457 15.2301 148.138 14.4062 148.144 13.4062C148.138 12.5312 148.371 11.7841 148.843 11.1648C149.315 10.5398 149.985 10.0625 150.854 9.73295C151.724 9.40341 152.749 9.23864 153.931 9.23864C155.704 9.23864 157.102 9.6108 158.124 10.3551C159.147 11.0937 159.712 12.1108 159.82 13.4062ZM168.315 22.7472C166.946 22.7472 165.764 22.4773 164.77 21.9375C163.781 21.392 163.02 20.6165 162.486 19.6108C161.957 18.5994 161.693 17.3977 161.693 16.0057C161.693 14.6534 161.96 13.4716 162.494 12.4602C163.028 11.4432 163.781 10.6534 164.753 10.0909C165.724 9.52273 166.869 9.23864 168.188 9.23864C169.119 9.23864 169.972 9.38352 170.744 9.67329C171.517 9.96307 172.185 10.392 172.747 10.9602C173.31 11.5284 173.747 12.2301 174.06 13.0653C174.372 13.8949 174.528 14.8466 174.528 15.9205V16.9602H163.151V14.5398H170.651C170.645 14.0966 170.54 13.7017 170.335 13.3551C170.131 13.0085 169.849 12.7386 169.491 12.5455C169.139 12.3466 168.733 12.2472 168.273 12.2472C167.807 12.2472 167.389 12.3523 167.02 12.5625C166.651 12.767 166.358 13.0483 166.142 13.4062C165.926 13.7585 165.813 14.1591 165.801 14.608V17.071C165.801 17.6051 165.906 18.0739 166.116 18.4773C166.327 18.875 166.625 19.1847 167.011 19.4062C167.398 19.6278 167.858 19.7386 168.392 19.7386C168.761 19.7386 169.097 19.6875 169.398 19.5852C169.699 19.483 169.957 19.3324 170.173 19.1335C170.389 18.9347 170.551 18.6903 170.659 18.4006L174.486 18.5114C174.327 19.3693 173.977 20.1165 173.438 20.7528C172.903 21.3835 172.202 21.875 171.332 22.2273C170.463 22.5739 169.457 22.7472 168.315 22.7472Z" fill="#6D28D2"/>
</svg>
